<svg version="1.1" xmlns="http://www.w3.org/2000/svg" xmlns:xlink="http://www.w3.org/1999/xlink" width="3284" height="1764"><defs/><g><g transform="translate(-134,10) scale(1,1)"><path fill="none" stroke="#000000" d="M 144 0 L 3408 0 L 3408 1744 L 144 1744 L 144 0" stroke-miterlimit="10"/></g><g transform="translate(-134,10) scale(1,1)"><path fill="#ffffff" stroke="none" d="M 144 0 L 144 22 L 277.05712890625 22 L 288.05712890625 11 L 288.05712890625 0 L 144 0"/></g><g transform="translate(-134,10) scale(1,1)"><path fill="none" stroke="#000000" d="M 144 0 L 144 22 L 277.05712890625 22 L 288.05712890625 11 L 288.05712890625 0 L 144 0 L 144 0" stroke-miterlimit="10"/></g><g transform="translate(-134,10) scale(1,1)"><g><path fill="none" stroke="none"/><text fill="#000000" stroke="none" font-family="Arial" font-size="13px" font-style="normal" font-weight="normal" text-decoration="none" x="214.97900390625" y="17.5">sd-search</text></g></g><g transform="translate(-134,10) scale(1,1)"><g><path fill="none" stroke="none"/><text fill="#000000" stroke="none" font-family="Arial" font-size="13px" font-style="normal" font-weight="bold" text-decoration="none" x="149" y="17.5">interaction</text></g></g><g transform="translate(-134,10) scale(1,1)"><rect fill="#C0C0C0" stroke="none" x="167" y="47" width="103.56982421875" height="39" opacity="0.2"/></g><g transform="translate(-134,10) scale(1,1)"><rect fill="#ffffff" stroke="none" x="160" y="40" width="103.56982421875" height="39"/></g><g transform="translate(-134,10) scale(1,1)"><path fill="none" stroke="#000000" d="M 160 40 L 263.56982421875 40 L 263.56982421875 79 L 160 79 L 160 40 Z Z" stroke-miterlimit="10"/></g><g transform="translate(-134,10) scale(1,1)"><g><path fill="none" stroke="none"/><text fill="#000000" stroke="none" font-family="Arial" font-size="13px" font-style="normal" font-weight="bold" text-decoration="none" x="172.410400390625" y="59.5">search server</text></g></g><g transform="translate(-134,10) scale(1,1)"><path fill="none" stroke="#000000" d="M 212.5 80 L 212.5 1640" stroke-miterlimit="10" stroke-dasharray="3"/></g><g transform="translate(-134,10) scale(1,1)"><rect fill="#C0C0C0" stroke="none" x="327" y="47" width="170.75341796875" height="39" opacity="0.2"/></g><g transform="translate(-134,10) scale(1,1)"><rect fill="#ffffff" stroke="none" x="320" y="40" width="170.75341796875" height="39"/></g><g transform="translate(-134,10) scale(1,1)"><path fill="none" stroke="#000000" d="M 320 40 L 490.75341796875 40 L 490.75341796875 79 L 320 79 L 320 40 Z Z" stroke-miterlimit="10"/></g><g transform="translate(-134,10) scale(1,1)"><path fill="none" stroke="#000000" d="M 323 40 L 323 79" stroke-miterlimit="10"/></g><g transform="translate(-134,10) scale(1,1)"><path fill="none" stroke="#000000" d="M 487.75341796875 40 L 487.75341796875 79" stroke-miterlimit="10"/></g><g transform="translate(-134,10) scale(1,1)"><g><path fill="none" stroke="none"/><text fill="#000000" stroke="none" font-family="Arial" font-size="13px" font-style="normal" font-weight="bold" text-decoration="none" x="334.200439453125" y="59.5">searcher: IndexSearcher</text></g></g><g transform="translate(-134,10) scale(1,1)"><path fill="none" stroke="#000000" d="M 406.5 80 L 406.5 1666" stroke-miterlimit="10" stroke-dasharray="3"/></g><g transform="translate(-134,10) scale(1,1)"><rect fill="#C0C0C0" stroke="none" x="567" y="47" width="149.0380859375" height="39" opacity="0.2"/></g><g transform="translate(-134,10) scale(1,1)"><rect fill="#ffffff" stroke="none" x="560" y="40" width="149.0380859375" height="39"/></g><g transform="translate(-134,10) scale(1,1)"><path fill="none" stroke="#000000" d="M 560 40 L 709.0380859375 40 L 709.0380859375 79 L 560 79 L 560 40 Z Z" stroke-miterlimit="10"/></g><g transform="translate(-134,10) scale(1,1)"><g><path fill="none" stroke="none"/><text fill="#000000" stroke="none" font-family="Arial" font-size="13px" font-style="normal" font-weight="bold" text-decoration="none" x="581.78271484375" y="59.5">query: TermQuery</text></g></g><g transform="translate(-134,10) scale(1,1)"><path fill="none" stroke="#000000" d="M 635.5 80 L 635.5 726" stroke-miterlimit="10" stroke-dasharray="3"/></g><g transform="translate(-134,10) scale(1,1)"><rect fill="#C0C0C0" stroke="none" x="991" y="47" width="185.13720703125" height="39" opacity="0.2"/></g><g transform="translate(-134,10) scale(1,1)"><rect fill="#ffffff" stroke="none" x="984" y="40" width="185.13720703125" height="39"/></g><g transform="translate(-134,10) scale(1,1)"><path fill="none" stroke="#000000" d="M 984 40 L 1169.13720703125 40 L 1169.13720703125 79 L 984 79 L 984 40 Z Z" stroke-miterlimit="10"/></g><g transform="translate(-134,10) scale(1,1)"><g><path fill="none" stroke="none"/><text fill="#000000" stroke="none" font-family="Arial" font-size="13px" font-style="normal" font-weight="bold" text-decoration="none" x="999.628662109375" y="59.5">term context: TermContext</text></g></g><g transform="translate(-134,10) scale(1,1)"><path fill="none" stroke="#000000" d="M 1077.5 80 L 1077.5 400" stroke-miterlimit="10" stroke-dasharray="3"/></g><g transform="translate(-134,10) scale(1,1)"><rect fill="#C0C0C0" stroke="none" x="1215" y="47" width="220.55078125" height="39" opacity="0.2"/></g><g transform="translate(-134,10) scale(1,1)"><rect fill="#ffffff" stroke="none" x="1208" y="40" width="220.55078125" height="39"/></g><g transform="translate(-134,10) scale(1,1)"><path fill="none" stroke="#000000" d="M 1208 40 L 1428.55078125 40 L 1428.55078125 79 L 1208 79 L 1208 40 Z Z" stroke-miterlimit="10"/></g><g transform="translate(-134,10) scale(1,1)"><g><path fill="none" stroke="none"/><text fill="#000000" stroke="none" font-family="Arial" font-size="13px" font-style="normal" font-weight="bold" text-decoration="none" x="1224.701416015625" y="59.5">PostingsReader: FieldsProducer</text></g></g><g transform="translate(-134,10) scale(1,1)"><path fill="none" stroke="#000000" d="M 1319.5 80 L 1319.5 368" stroke-miterlimit="10" stroke-dasharray="3"/></g><g transform="translate(-134,10) scale(1,1)"><rect fill="#C0C0C0" stroke="none" x="1463" y="47" width="142.55078125" height="39" opacity="0.2"/></g><g transform="translate(-134,10) scale(1,1)"><rect fill="#ffffff" stroke="none" x="1456" y="40" width="142.55078125" height="39"/></g><g transform="translate(-134,10) scale(1,1)"><path fill="none" stroke="#000000" d="M 1456 40 L 1598.55078125 40 L 1598.55078125 79 L 1456 79 L 1456 40 Z Z" stroke-miterlimit="10"/></g><g transform="translate(-134,10) scale(1,1)"><g><path fill="none" stroke="none"/><text fill="#000000" stroke="none" font-family="Arial" font-size="13px" font-style="normal" font-weight="bold" text-decoration="none" x="1472.025390625" y="59.5">similarity: Similarity</text></g></g><g transform="translate(-134,10) scale(1,1)"><path fill="none" stroke="#000000" d="M 1528.5 80 L 1528.5 624" stroke-miterlimit="10" stroke-dasharray="3"/></g><g transform="translate(-134,10) scale(1,1)"><rect fill="#C0C0C0" stroke="none" x="791" y="627" width="175.00634765625" height="39" opacity="0.2"/></g><g transform="translate(-134,10) scale(1,1)"><rect fill="#ffffff" stroke="none" x="784" y="620" width="175.00634765625" height="39"/></g><g transform="translate(-134,10) scale(1,1)"><path fill="none" stroke="#000000" d="M 784 620 L 959.00634765625 620 L 959.00634765625 659 L 784 659 L 784 620 Z Z" stroke-miterlimit="10"/></g><g transform="translate(-134,10) scale(1,1)"><g><path fill="none" stroke="none"/><text fill="#000000" stroke="none" font-family="Arial" font-size="13px" font-style="normal" font-weight="bold" text-decoration="none" x="813.707763671875" y="639.5">weight: TermWeight</text></g></g><g transform="translate(-134,10) scale(1,1)"><path fill="none" stroke="#000000" d="M 872.5 660 L 872.5 1110" stroke-miterlimit="10" stroke-dasharray="3"/></g><g transform="translate(-134,10) scale(1,1)"><path fill="#ffffff" stroke="none" d="M 1651.733154296875 60 C 1651.733154296875 48.954304 1660.687458296875 40 1671.733154296875 40 C 1682.778850296875 40 1691.733154296875 48.954304 1691.733154296875 60 C 1691.733154296875 71.04569599999999 1682.778850296875 80 1671.733154296875 80 C 1660.687458296875 80 1651.733154296875 71.04569599999999 1651.733154296875 60 Z"/></g><g transform="translate(-134,10) scale(1,1)"><path fill="none" stroke="#000000" d="M 1651.733154296875 60 C 1651.733154296875 48.954304 1660.687458296875 40 1671.733154296875 40 C 1682.778850296875 40 1691.733154296875 48.954304 1691.733154296875 60 C 1691.733154296875 71.04569599999999 1682.778850296875 80 1671.733154296875 80 C 1660.687458296875 80 1651.733154296875 71.04569599999999 1651.733154296875 60 Z" stroke-miterlimit="10"/></g><g transform="translate(-134,10) scale(1,1)"><g><path fill="none" stroke="none"/><text fill="#000000" stroke="none" font-family="Arial" font-size="13px" font-style="normal" font-weight="bold" text-decoration="none" x="1618.27001953125" y="99.5">collector: Collector</text></g></g><g transform="translate(-134,10) scale(1,1)"><path fill="none" stroke="#000000" d="M 1672.5 105 L 1672.5 912" stroke-miterlimit="10" stroke-dasharray="3"/></g><g transform="translate(-134,10) scale(1,1)"><rect fill="#C0C0C0" stroke="none" x="1791" y="1027" width="164.21533203125" height="39" opacity="0.2"/></g><g transform="translate(-134,10) scale(1,1)"><rect fill="#ffffff" stroke="none" x="1784" y="1020" width="164.21533203125" height="39"/></g><g transform="translate(-134,10) scale(1,1)"><path fill="none" stroke="#000000" d="M 1784 1020 L 1948.21533203125 1020 L 1948.21533203125 1059 L 1784 1059 L 1784 1020 Z Z" stroke-miterlimit="10"/></g><g transform="translate(-134,10) scale(1,1)"><g><path fill="none" stroke="none"/><text fill="#000000" stroke="none" font-family="Arial" font-size="13px" font-style="normal" font-weight="bold" text-decoration="none" x="1799.63818359375" y="1039.5">bulkScorer: BulkScorer</text></g></g><g transform="translate(-134,10) scale(1,1)"><path fill="none" stroke="#000000" d="M 1867.5 1060 L 1867.5 1464" stroke-miterlimit="10" stroke-dasharray="3"/></g><g transform="translate(-134,10) scale(1,1)"><rect fill="#C0C0C0" stroke="none" x="2007" y="939" width="208.95361328125" height="39" opacity="0.2"/></g><g transform="translate(-134,10) scale(1,1)"><rect fill="#ffffff" stroke="none" x="2000" y="932" width="208.95361328125" height="39"/></g><g transform="translate(-134,10) scale(1,1)"><path fill="none" stroke="#000000" d="M 2000 932 L 2208.95361328125 932 L 2208.95361328125 971 L 2000 971 L 2000 932 Z Z" stroke-miterlimit="10"/></g><g transform="translate(-134,10) scale(1,1)"><g><path fill="none" stroke="none"/><text fill="#000000" stroke="none" font-family="Arial" font-size="13px" font-style="normal" font-weight="bold" text-decoration="none" x="2017.77099609375" y="951.5">matchingDocs: PostingsEnum</text></g></g><g transform="translate(-134,10) scale(1,1)"><path fill="none" stroke="#000000" d="M 2105.5 972 L 2105.5 1456" stroke-miterlimit="10" stroke-dasharray="3"/></g><g transform="translate(-134,10) scale(1,1)"><rect fill="#C0C0C0" stroke="none" x="2495" y="979" width="155.5634765625" height="39" opacity="0.2"/></g><g transform="translate(-134,10) scale(1,1)"><rect fill="#ffffff" stroke="none" x="2488" y="972" width="155.5634765625" height="39"/></g><g transform="translate(-134,10) scale(1,1)"><path fill="none" stroke="#000000" d="M 2488 972 L 2643.5634765625 972 L 2643.5634765625 1011 L 2488 1011 L 2488 972 Z Z" stroke-miterlimit="10"/></g><g transform="translate(-134,10) scale(1,1)"><g><path fill="none" stroke="none"/><text fill="#000000" stroke="none" font-family="Arial" font-size="13px" font-style="normal" font-weight="bold" text-decoration="none" x="2502.578125" y="991.5">simScorer: SimScorer</text></g></g><g transform="translate(-134,10) scale(1,1)"><path fill="none" stroke="#000000" d="M 2566.5 1012 L 2566.5 1464" stroke-miterlimit="10" stroke-dasharray="3"/></g><g transform="translate(-134,10) scale(1,1)"><path fill="#ffffff" stroke="none" d="M 2366.542236328125 816 C 2366.542236328125 804.954304 2375.496540328125 796 2386.542236328125 796 C 2397.587932328125 796 2406.542236328125 804.954304 2406.542236328125 816 C 2406.542236328125 827.045696 2397.587932328125 836 2386.542236328125 836 C 2375.496540328125 836 2366.542236328125 827.045696 2366.542236328125 816 Z"/></g><g transform="translate(-134,10) scale(1,1)"><path fill="none" stroke="#000000" d="M 2366.542236328125 816 C 2366.542236328125 804.954304 2375.496540328125 796 2386.542236328125 796 C 2397.587932328125 796 2406.542236328125 804.954304 2406.542236328125 816 C 2406.542236328125 827.045696 2397.587932328125 836 2386.542236328125 836 C 2375.496540328125 836 2366.542236328125 827.045696 2366.542236328125 816 Z" stroke-miterlimit="10"/></g><g transform="translate(-134,10) scale(1,1)"><g><path fill="none" stroke="none"/><text fill="#000000" stroke="none" font-family="Arial" font-size="13px" font-style="normal" font-weight="bold" text-decoration="none" x="2306.333251953125" y="855.5">LeafCollector: LeafCollector</text></g></g><g transform="translate(-134,10) scale(1,1)"><path fill="none" stroke="#000000" d="M 2387.5 861 L 2387.5 1464" stroke-miterlimit="10" stroke-dasharray="3"/></g><g transform="translate(-134,10) scale(1,1)"><rect fill="#C0C0C0" stroke="none" x="2761" y="47" width="165.6435546875" height="39" opacity="0.2"/></g><g transform="translate(-134,10) scale(1,1)"><rect fill="#ffffff" stroke="none" x="2754" y="40" width="165.6435546875" height="39"/></g><g transform="translate(-134,10) scale(1,1)"><path fill="none" stroke="#000000" d="M 2754 40 L 2919.6435546875 40 L 2919.6435546875 79 L 2754 79 L 2754 40 Z Z" stroke-miterlimit="10"/></g><g transform="translate(-134,10) scale(1,1)"><g><path fill="none" stroke="none"/><text fill="#000000" stroke="none" font-family="Arial" font-size="13px" font-style="normal" font-weight="bold" text-decoration="none" x="2775.3955078125" y="59.5">queue: PriorityQueue</text></g></g><g transform="translate(-134,10) scale(1,1)"><path fill="none" stroke="#000000" d="M 2837.5 80 L 2837.5 1480" stroke-miterlimit="10" stroke-dasharray="3"/></g><g transform="translate(-134,10) scale(1,1)"><path fill="#ffffff" stroke="none" d="M 3136.272216796875 60 C 3136.272216796875 48.954304 3145.226520796875 40 3156.272216796875 40 C 3167.317912796875 40 3176.272216796875 48.954304 3176.272216796875 60 C 3176.272216796875 71.04569599999999 3167.317912796875 80 3156.272216796875 80 C 3145.226520796875 80 3136.272216796875 71.04569599999999 3136.272216796875 60 Z"/></g><g transform="translate(-134,10) scale(1,1)"><path fill="none" stroke="#000000" d="M 3136.272216796875 60 C 3136.272216796875 48.954304 3145.226520796875 40 3156.272216796875 40 C 3167.317912796875 40 3176.272216796875 48.954304 3176.272216796875 60 C 3176.272216796875 71.04569599999999 3167.317912796875 80 3156.272216796875 80 C 3145.226520796875 80 3136.272216796875 71.04569599999999 3136.272216796875 60 Z" stroke-miterlimit="10"/></g><g transform="translate(-134,10) scale(1,1)"><g><path fill="none" stroke="none"/><text fill="#000000" stroke="none" font-family="Arial" font-size="13px" font-style="normal" font-weight="bold" text-decoration="none" x="3050.056884765625" y="99.5">CollectorManager: CollectorManager</text></g></g><g transform="translate(-134,10) scale(1,1)"><path fill="none" stroke="#000000" d="M 3157.5 105 L 3157.5 1720" stroke-miterlimit="10" stroke-dasharray="3"/></g><g transform="translate(-134,10) scale(1,1)"><path fill="none" stroke="#000000" d="M 212 116 L 399 116" stroke-miterlimit="10"/></g><g transform="translate(-134,10) scale(1,1)"><path fill="#000000" stroke="none" d="M 388.83732514237585 120.20951775601598 L 399 116 L 388.83732514237585 111.79048224398402"/></g><g transform="translate(-134,10) scale(1,1)"><path fill="none" stroke="#000000" d="M 388.83732514237585 120.20951775601598 L 399 116 L 388.83732514237585 111.79048224398402 L 388.83732514237585 120.20951775601598" stroke-miterlimit="10"/></g><g transform="translate(-134,10) scale(1,1)"><g><path fill="none" stroke="none"/><text fill="#000000" stroke="none" font-family="Arial" font-size="13px" font-style="normal" font-weight="normal" text-decoration="none" x="272.515869140625" y="112.5">1 : search()</text></g></g><g transform="translate(-134,10) scale(1,1)"><rect fill="#ffffff" stroke="none" x="399" y="116" width="13" height="1500"/></g><g transform="translate(-134,10) scale(1,1)"><path fill="none" stroke="#000000" d="M 399 116 L 412 116 L 412 1616 L 399 1616 L 399 116 Z Z" stroke-miterlimit="10"/></g><g transform="translate(-134,10) scale(1,1)"><path fill="none" stroke="#000000" d="M 412 136 L 628 136" stroke-miterlimit="10"/></g><g transform="translate(-134,10) scale(1,1)"><path fill="#000000" stroke="none" d="M 617.8373251423759 140.209517756016 L 628 136 L 617.8373251423758 131.790482243984"/></g><g transform="translate(-134,10) scale(1,1)"><path fill="none" stroke="#000000" d="M 617.8373251423759 140.209517756016 L 628 136 L 617.8373251423758 131.790482243984 L 617.8373251423759 140.209517756016" stroke-miterlimit="10"/></g><g transform="translate(-134,10) scale(1,1)"><g><path fill="none" stroke="none"/><text fill="#000000" stroke="none" font-family="Arial" font-size="13px" font-style="normal" font-weight="normal" text-decoration="none" x="467.853515625" y="132.5">2 : createWeight()</text></g></g><g transform="translate(-134,10) scale(1,1)"><rect fill="#ffffff" stroke="none" x="628" y="136" width="13" height="560"/></g><g transform="translate(-134,10) scale(1,1)"><path fill="none" stroke="#000000" d="M 628 136 L 641 136 L 641 696 L 628 696 L 628 136 Z Z" stroke-miterlimit="10"/></g><g transform="translate(-134,10) scale(1,1)"><path fill="none" stroke="#000000" d="M 628 156 L 419 156" stroke-miterlimit="10"/></g><g transform="translate(-134,10) scale(1,1)"><path fill="#000000" stroke="none" d="M 429.16267485762415 151.790482243984 L 419 156 L 429.16267485762415 160.209517756016"/></g><g transform="translate(-134,10) scale(1,1)"><path fill="none" stroke="#000000" d="M 429.16267485762415 151.790482243984 L 419 156 L 429.16267485762415 160.209517756016 L 429.16267485762415 151.790482243984" stroke-miterlimit="10"/></g><g transform="translate(-134,10) scale(1,1)"><g><path fill="none" stroke="none"/><text fill="#000000" stroke="none" font-family="Arial" font-size="13px" font-style="normal" font-weight="normal" text-decoration="none" x="449.5" y="172.5">3 : getTopReaderContext</text></g></g><g transform="translate(-134,10) scale(1,1)"><rect fill="#ffffff" stroke="none" x="406" y="156" width="13" height="44"/></g><g transform="translate(-134,10) scale(1,1)"><path fill="none" stroke="#000000" d="M 406 156 L 419 156 L 419 200 L 406 200 L 406 156 Z Z" stroke-miterlimit="10"/></g><g transform="translate(-134,10) scale(1,1)"><path fill="none" stroke="#000000" d="M 412 201 L 628 201" stroke-miterlimit="10" stroke-dasharray="3"/></g><g transform="translate(-134,10) scale(1,1)"><path fill="none" stroke="#000000" d="M 617.8373251423759 205.209517756016 L 628 201 L 617.8373251423758 196.790482243984" stroke-miterlimit="10"/></g><g transform="translate(-134,10) scale(1,1)"><g><path fill="none" stroke="none"/><text fill="#000000" stroke="none" font-family="Arial" font-size="13px" font-style="normal" font-weight="normal" text-decoration="none" x="432.5" y="197.5">4 : return IndexReaderContext</text></g></g><g transform="translate(-134,10) scale(1,1)"><path fill="none" stroke="#000000" d="M 641 216 L 1070 216" stroke-miterlimit="10"/></g><g transform="translate(-134,10) scale(1,1)"><path fill="#000000" stroke="none" d="M 1059.837325142376 220.209517756016 L 1070 216 L 1059.837325142376 211.790482243984"/></g><g transform="translate(-134,10) scale(1,1)"><path fill="none" stroke="#000000" d="M 1059.837325142376 220.209517756016 L 1070 216 L 1059.837325142376 211.790482243984 L 1059.837325142376 220.209517756016" stroke-miterlimit="10"/></g><g transform="translate(-134,10) scale(1,1)"><g><path fill="none" stroke="none"/><text fill="#000000" stroke="none" font-family="Arial" font-size="13px" font-style="normal" font-weight="normal" text-decoration="none" x="727.5" y="212.5">5 *[PostingsReader in  index reader] : build()</text></g></g><g transform="translate(-134,10) scale(1,1)"><rect fill="#ffffff" stroke="none" x="1070" y="216" width="13" height="88"/></g><g transform="translate(-134,10) scale(1,1)"><path fill="none" stroke="#000000" d="M 1070 216 L 1083 216 L 1083 304 L 1070 304 L 1070 216 Z Z" stroke-miterlimit="10"/></g><g transform="translate(-134,10) scale(1,1)"><path fill="none" stroke="#000000" d="M 1083 240 L 1312 240" stroke-miterlimit="10"/></g><g transform="translate(-134,10) scale(1,1)"><path fill="#000000" stroke="none" d="M 1301.837325142376 244.209517756016 L 1312 240 L 1301.837325142376 235.790482243984"/></g><g transform="translate(-134,10) scale(1,1)"><path fill="none" stroke="#000000" d="M 1301.837325142376 244.209517756016 L 1312 240 L 1301.837325142376 235.790482243984 L 1301.837325142376 244.209517756016" stroke-miterlimit="10"/></g><g transform="translate(-134,10) scale(1,1)"><g><path fill="none" stroke="none"/><text fill="#000000" stroke="none" font-family="Arial" font-size="13px" font-style="normal" font-weight="normal" text-decoration="none" x="1167.265869140625" y="236.5">6 : terms()</text></g></g><g transform="translate(-134,10) scale(1,1)"><rect fill="#ffffff" stroke="none" x="1312" y="240" width="13" height="28"/></g><g transform="translate(-134,10) scale(1,1)"><path fill="none" stroke="#000000" d="M 1312 240 L 1325 240 L 1325 268 L 1312 268 L 1312 240 Z Z" stroke-miterlimit="10"/></g><g transform="translate(-134,10) scale(1,1)"><path fill="none" stroke="#000000" d="M 1312 263 L 1083 263" stroke-miterlimit="10" stroke-dasharray="3"/></g><g transform="translate(-134,10) scale(1,1)"><path fill="none" stroke="#000000" d="M 1093.162674857624 258.790482243984 L 1083 263 L 1093.162674857624 267.209517756016" stroke-miterlimit="10"/></g><g transform="translate(-134,10) scale(1,1)"><g><path fill="none" stroke="none"/><text fill="#000000" stroke="none" font-family="Arial" font-size="13px" font-style="normal" font-weight="normal" text-decoration="none" x="1118.5" y="279.5">7 : return terms of one field</text></g></g><g transform="translate(-134,10) scale(1,1)"><path fill="none" stroke="#000000" d="M 1070 300 L 641 300" stroke-miterlimit="10" stroke-dasharray="3"/></g><g transform="translate(-134,10) scale(1,1)"><path fill="none" stroke="#000000" d="M 651.1626748576241 295.790482243984 L 641 300 L 651.1626748576241 304.209517756016" stroke-miterlimit="10"/></g><g transform="translate(-134,10) scale(1,1)"><g><path fill="none" stroke="none"/><text fill="#000000" stroke="none" font-family="Arial" font-size="13px" font-style="normal" font-weight="normal" text-decoration="none" x="788.5" y="316.5">8 : return TermContext</text></g></g><g transform="translate(-134,10) scale(1,1)"><path fill="none" stroke="#000000" d="M 628 342 L 419 342" stroke-miterlimit="10"/></g><g transform="translate(-134,10) scale(1,1)"><path fill="#000000" stroke="none" d="M 429.16267485762415 337.790482243984 L 419 342 L 429.16267485762415 346.209517756016"/></g><g transform="translate(-134,10) scale(1,1)"><path fill="none" stroke="#000000" d="M 429.16267485762415 337.790482243984 L 419 342 L 429.16267485762415 346.209517756016 L 429.16267485762415 337.790482243984" stroke-miterlimit="10"/></g><g transform="translate(-134,10) scale(1,1)"><g><path fill="none" stroke="none"/><text fill="#000000" stroke="none" font-family="Arial" font-size="13px" font-style="normal" font-weight="normal" text-decoration="none" x="455.5" y="358.5">9 : collectionStatistics()</text></g></g><g transform="translate(-134,10) scale(1,1)"><rect fill="#ffffff" stroke="none" x="406" y="342" width="13" height="50"/></g><g transform="translate(-134,10) scale(1,1)"><path fill="none" stroke="#000000" d="M 406 342 L 419 342 L 419 392 L 406 392 L 406 342 Z Z" stroke-miterlimit="10"/></g><g transform="translate(-134,10) scale(1,1)"><path fill="none" stroke="#000000" d="M 419 384 L 628 384" stroke-miterlimit="10" stroke-dasharray="3"/></g><g transform="translate(-134,10) scale(1,1)"><path fill="none" stroke="#000000" d="M 617.8373251423759 388.209517756016 L 628 384 L 617.8373251423758 379.790482243984" stroke-miterlimit="10"/></g><g transform="translate(-134,10) scale(1,1)"><g><path fill="none" stroke="none"/><text fill="#000000" stroke="none" font-family="Arial" font-size="13px" font-style="normal" font-weight="normal" text-decoration="none" x="437.5" y="380.5">10 : return CollectionStatistics</text></g></g><g transform="translate(-134,10) scale(1,1)"><path fill="none" stroke="#000000" d="M 628 431 L 419 431" stroke-miterlimit="10"/></g><g transform="translate(-134,10) scale(1,1)"><path fill="#000000" stroke="none" d="M 429.16267485762415 426.790482243984 L 419 431 L 429.16267485762415 435.209517756016"/></g><g transform="translate(-134,10) scale(1,1)"><path fill="none" stroke="#000000" d="M 429.16267485762415 426.790482243984 L 419 431 L 429.16267485762415 435.209517756016 L 429.16267485762415 426.790482243984" stroke-miterlimit="10"/></g><g transform="translate(-134,10) scale(1,1)"><g><path fill="none" stroke="none"/><text fill="#000000" stroke="none" font-family="Arial" font-size="13px" font-style="normal" font-weight="normal" text-decoration="none" x="465.680419921875" y="447.5">11 : termStatistics()</text></g></g><g transform="translate(-134,10) scale(1,1)"><rect fill="#ffffff" stroke="none" x="406" y="431" width="13" height="41"/></g><g transform="translate(-134,10) scale(1,1)"><path fill="none" stroke="#000000" d="M 406 431 L 419 431 L 419 472 L 406 472 L 406 431 Z Z" stroke-miterlimit="10"/></g><g transform="translate(-134,10) scale(1,1)"><path fill="none" stroke="#000000" d="M 412 474 L 628 474" stroke-miterlimit="10" stroke-dasharray="3"/></g><g transform="translate(-134,10) scale(1,1)"><path fill="none" stroke="#000000" d="M 617.8373251423759 478.209517756016 L 628 474 L 617.8373251423758 469.790482243984" stroke-miterlimit="10"/></g><g transform="translate(-134,10) scale(1,1)"><g><path fill="none" stroke="none"/><text fill="#000000" stroke="none" font-family="Arial" font-size="13px" font-style="normal" font-weight="normal" text-decoration="none" x="447.5" y="470.5">12 : return TermStatistics</text></g></g><g transform="translate(-134,10) scale(1,1)"><path fill="none" stroke="#000000" d="M 641 504 L 1521 504" stroke-miterlimit="10"/></g><g transform="translate(-134,10) scale(1,1)"><path fill="#000000" stroke="none" d="M 1510.837325142376 508.209517756016 L 1521 504 L 1510.837325142376 499.790482243984"/></g><g transform="translate(-134,10) scale(1,1)"><path fill="none" stroke="#000000" d="M 1510.837325142376 508.209517756016 L 1521 504 L 1510.837325142376 499.790482243984 L 1510.837325142376 508.209517756016" stroke-miterlimit="10"/></g><g transform="translate(-134,10) scale(1,1)"><g><path fill="none" stroke="none"/><text fill="#000000" stroke="none" font-family="Arial" font-size="13px" font-style="normal" font-weight="normal" text-decoration="none" x="1018.5" y="500.5">13 : computeWeight()</text></g></g><g transform="translate(-134,10) scale(1,1)"><rect fill="#ffffff" stroke="none" x="1521" y="504" width="13" height="28"/></g><g transform="translate(-134,10) scale(1,1)"><path fill="none" stroke="#000000" d="M 1521 504 L 1534 504 L 1534 532 L 1521 532 L 1521 504 Z Z" stroke-miterlimit="10"/></g><g transform="translate(-134,10) scale(1,1)"><path fill="none" stroke="#000000" d="M 1528 534 L 641 534" stroke-miterlimit="10" stroke-dasharray="3"/></g><g transform="translate(-134,10) scale(1,1)"><path fill="none" stroke="#000000" d="M 651.1626748576241 529.790482243984 L 641 534 L 651.1626748576241 538.209517756016" stroke-miterlimit="10"/></g><g transform="translate(-134,10) scale(1,1)"><g><path fill="none" stroke="none"/><text fill="#000000" stroke="none" font-family="Arial" font-size="13px" font-style="normal" font-weight="normal" text-decoration="none" x="1021.5" y="550.5">14 : return simWeight</text></g></g><g transform="translate(-134,10) scale(1,1)"><path fill="none" stroke="#000000" d="M 641 640 L 784 640" stroke-miterlimit="10" stroke-dasharray="3"/></g><g transform="translate(-134,10) scale(1,1)"><path fill="none" stroke="#000000" d="M 773.8373251423759 644.209517756016 L 784 640 L 773.8373251423758 635.790482243984" stroke-miterlimit="10"/></g><g transform="translate(-134,10) scale(1,1)"><g><path fill="none" stroke="none"/><text fill="#000000" stroke="none" font-family="Arial" font-size="13px" font-style="normal" font-weight="normal" text-decoration="none" x="659.5" y="636.5">15 : TermWeight()</text></g></g><g transform="translate(-134,10) scale(1,1)"><g><path fill="none" stroke="none"/><text fill="#000000" stroke="none" font-family="Arial" font-size="13px" font-style="normal" font-weight="normal" text-decoration="none" x="686.5" y="621.5">«create»</text></g></g><g transform="translate(-134,10) scale(1,1)"><path fill="none" stroke="#000000" d="M 635 696 L 412 696" stroke-miterlimit="10" stroke-dasharray="3"/></g><g transform="translate(-134,10) scale(1,1)"><path fill="none" stroke="#000000" d="M 422.16267485762415 691.790482243984 L 412 696 L 422.16267485762415 700.209517756016" stroke-miterlimit="10"/></g><g transform="translate(-134,10) scale(1,1)"><g><path fill="none" stroke="none"/><text fill="#000000" stroke="none" font-family="Arial" font-size="13px" font-style="normal" font-weight="normal" text-decoration="none" x="470.5" y="712.5">16 : return Weight</text></g></g><g transform="translate(-134,10) scale(1,1)"><path fill="none" stroke="#000000" d="M 412 752 L 442 752 L 442 772 L 419 772" stroke-miterlimit="10"/></g><g transform="translate(-134,10) scale(1,1)"><path fill="#000000" stroke="none" d="M 429.16267485762415 767.790482243984 L 419 772 L 429.16267485762415 776.209517756016"/></g><g transform="translate(-134,10) scale(1,1)"><path fill="none" stroke="#000000" d="M 429.16267485762415 767.790482243984 L 419 772 L 429.16267485762415 776.209517756016 L 429.16267485762415 767.790482243984" stroke-miterlimit="10"/></g><g transform="translate(-134,10) scale(1,1)"><g><path fill="none" stroke="none"/><text fill="#000000" stroke="none" font-family="Arial" font-size="13px" font-style="normal" font-weight="normal" text-decoration="none" x="422.5" y="748.5">17 : internal low level search</text></g></g><g transform="translate(-134,10) scale(1,1)"><rect fill="#ffffff" stroke="none" x="406" y="772" width="13" height="604"/></g><g transform="translate(-134,10) scale(1,1)"><path fill="none" stroke="#000000" d="M 406 772 L 419 772 L 419 1376 L 406 1376 L 406 772 Z Z" stroke-miterlimit="10"/></g><g transform="translate(-134,10) scale(1,1)"><path fill="none" stroke="#000000" d="M 419 793 L 1665 793" stroke-miterlimit="10"/></g><g transform="translate(-134,10) scale(1,1)"><path fill="#000000" stroke="none" d="M 1654.837325142376 797.209517756016 L 1665 793 L 1654.837325142376 788.790482243984"/></g><g transform="translate(-134,10) scale(1,1)"><path fill="none" stroke="#000000" d="M 1654.837325142376 797.209517756016 L 1665 793 L 1654.837325142376 788.790482243984 L 1654.837325142376 797.209517756016" stroke-miterlimit="10"/></g><g transform="translate(-134,10) scale(1,1)"><g><path fill="none" stroke="none"/><text fill="#000000" stroke="none" font-family="Arial" font-size="13px" font-style="normal" font-weight="normal" text-decoration="none" x="977.5" y="789.5">18 : getLeafCollector()</text></g></g><g transform="translate(-134,10) scale(1,1)"><rect fill="#ffffff" stroke="none" x="1665" y="793" width="13" height="47"/></g><g transform="translate(-134,10) scale(1,1)"><path fill="none" stroke="#000000" d="M 1665 793 L 1678 793 L 1678 840 L 1665 840 L 1665 793 Z Z" stroke-miterlimit="10"/></g><g transform="translate(-134,10) scale(1,1)"><path fill="none" stroke="#000000" d="M 1678 816 L 2295 816" stroke-miterlimit="10" stroke-dasharray="3"/></g><g transform="translate(-134,10) scale(1,1)"><path fill="none" stroke="#000000" d="M 2284.837325142376 820.209517756016 L 2295 816 L 2284.837325142376 811.790482243984" stroke-miterlimit="10"/></g><g transform="translate(-134,10) scale(1,1)"><g><path fill="none" stroke="none"/><text fill="#000000" stroke="none" font-family="Arial" font-size="13px" font-style="normal" font-weight="normal" text-decoration="none" x="1915.5" y="812.5">19 : create LeafCollector</text></g></g><g transform="translate(-134,10) scale(1,1)"><g><path fill="none" stroke="none"/><text fill="#000000" stroke="none" font-family="Arial" font-size="13px" font-style="normal" font-weight="normal" text-decoration="none" x="1960.5" y="797.5">«create»</text></g></g><g transform="translate(-134,10) scale(1,1)"><path fill="none" stroke="#000000" d="M 1665 832 L 419 832" stroke-miterlimit="10" stroke-dasharray="3"/></g><g transform="translate(-134,10) scale(1,1)"><path fill="none" stroke="#000000" d="M 429.16267485762415 827.790482243984 L 419 832 L 429.16267485762415 836.209517756016" stroke-miterlimit="10"/></g><g transform="translate(-134,10) scale(1,1)"><g><path fill="none" stroke="none"/><text fill="#000000" stroke="none" font-family="Arial" font-size="13px" font-style="normal" font-weight="normal" text-decoration="none" x="971.5" y="848.5">20 : return LeafCollector</text></g></g><g transform="translate(-134,10) scale(1,1)"><path fill="none" stroke="#000000" d="M 419 904 L 865 904" stroke-miterlimit="10"/></g><g transform="translate(-134,10) scale(1,1)"><path fill="#000000" stroke="none" d="M 854.8373251423759 908.209517756016 L 865 904 L 854.8373251423758 899.790482243984"/></g><g transform="translate(-134,10) scale(1,1)"><path fill="none" stroke="#000000" d="M 854.8373251423759 908.209517756016 L 865 904 L 854.8373251423758 899.790482243984 L 854.8373251423759 908.209517756016" stroke-miterlimit="10"/></g><g transform="translate(-134,10) scale(1,1)"><g><path fill="none" stroke="none"/><text fill="#000000" stroke="none" font-family="Arial" font-size="13px" font-style="normal" font-weight="normal" text-decoration="none" x="593.5" y="900.5">21 : bulkScorer()</text></g></g><g transform="translate(-134,10) scale(1,1)"><rect fill="#ffffff" stroke="none" x="865" y="904" width="13" height="184"/></g><g transform="translate(-134,10) scale(1,1)"><path fill="none" stroke="#000000" d="M 865 904 L 878 904 L 878 1088 L 865 1088 L 865 904 Z Z" stroke-miterlimit="10"/></g><g transform="translate(-134,10) scale(1,1)"><path fill="none" stroke="#000000" d="M 878 920 L 908 920 L 908 940 L 885 940" stroke-miterlimit="10"/></g><g transform="translate(-134,10) scale(1,1)"><path fill="#000000" stroke="none" d="M 895.1626748576241 935.790482243984 L 885 940 L 895.1626748576241 944.209517756016"/></g><g transform="translate(-134,10) scale(1,1)"><path fill="none" stroke="#000000" d="M 895.1626748576241 935.790482243984 L 885 940 L 895.1626748576241 944.209517756016 L 895.1626748576241 935.790482243984" stroke-miterlimit="10"/></g><g transform="translate(-134,10) scale(1,1)"><g><path fill="none" stroke="none"/><text fill="#000000" stroke="none" font-family="Arial" font-size="13px" font-style="normal" font-weight="normal" text-decoration="none" x="882.101318359375" y="935.5">22 : scorer()</text></g></g><g transform="translate(-134,10) scale(1,1)"><rect fill="#ffffff" stroke="none" x="872" y="940" width="13" height="108"/></g><g transform="translate(-134,10) scale(1,1)"><path fill="none" stroke="#000000" d="M 872 940 L 885 940 L 885 1048 L 872 1048 L 872 940 Z Z" stroke-miterlimit="10"/></g><g transform="translate(-134,10) scale(1,1)"><path fill="none" stroke="#000000" d="M 885 952 L 2000 952" stroke-miterlimit="10" stroke-dasharray="3"/></g><g transform="translate(-134,10) scale(1,1)"><path fill="none" stroke="#000000" d="M 1989.837325142376 956.209517756016 L 2000 952 L 1989.837325142376 947.790482243984" stroke-miterlimit="10"/></g><g transform="translate(-134,10) scale(1,1)"><g><path fill="none" stroke="none"/><text fill="#000000" stroke="none" font-family="Arial" font-size="13px" font-style="normal" font-weight="normal" text-decoration="none" x="1349.094970703125" y="948.5">23 : create matching docs enum</text></g></g><g transform="translate(-134,10) scale(1,1)"><g><path fill="none" stroke="none"/><text fill="#000000" stroke="none" font-family="Arial" font-size="13px" font-style="normal" font-weight="normal" text-decoration="none" x="1416.5" y="933.5">«create»</text></g></g><g transform="translate(-134,10) scale(1,1)"><path fill="none" stroke="#000000" d="M 885 992 L 2488 992" stroke-miterlimit="10" stroke-dasharray="3"/></g><g transform="translate(-134,10) scale(1,1)"><path fill="none" stroke="#000000" d="M 2477.837325142376 996.209517756016 L 2488 992 L 2477.837325142376 987.790482243984" stroke-miterlimit="10"/></g><g transform="translate(-134,10) scale(1,1)"><g><path fill="none" stroke="none"/><text fill="#000000" stroke="none" font-family="Arial" font-size="13px" font-style="normal" font-weight="normal" text-decoration="none" x="1555.5" y="988.5">24 : create simScorer to score matching docs</text></g></g><g transform="translate(-134,10) scale(1,1)"><g><path fill="none" stroke="none"/><text fill="#000000" stroke="none" font-family="Arial" font-size="13px" font-style="normal" font-weight="normal" text-decoration="none" x="1660.5" y="973.5">«create»</text></g></g><g transform="translate(-134,10) scale(1,1)"><path fill="none" stroke="#000000" d="M 885 1040 L 1784 1040" stroke-miterlimit="10" stroke-dasharray="3"/></g><g transform="translate(-134,10) scale(1,1)"><path fill="none" stroke="#000000" d="M 1773.837325142376 1044.2095177560159 L 1784 1040 L 1773.837325142376 1035.7904822439841" stroke-miterlimit="10"/></g><g transform="translate(-134,10) scale(1,1)"><g><path fill="none" stroke="none"/><text fill="#000000" stroke="none" font-family="Arial" font-size="13px" font-style="normal" font-weight="normal" text-decoration="none" x="1269.5" y="1036.5">25 : create BulkScorer</text></g></g><g transform="translate(-134,10) scale(1,1)"><g><path fill="none" stroke="none"/><text fill="#000000" stroke="none" font-family="Arial" font-size="13px" font-style="normal" font-weight="normal" text-decoration="none" x="1308.5" y="1021.5">«create»</text></g></g><g transform="translate(-134,10) scale(1,1)"><path fill="none" stroke="#000000" d="M 865 1080 L 419 1080" stroke-miterlimit="10" stroke-dasharray="3"/></g><g transform="translate(-134,10) scale(1,1)"><path fill="none" stroke="#000000" d="M 429.16267485762415 1075.7904822439841 L 419 1080 L 429.16267485762415 1084.2095177560159" stroke-miterlimit="10"/></g><g transform="translate(-134,10) scale(1,1)"><g><path fill="none" stroke="none"/><text fill="#000000" stroke="none" font-family="Arial" font-size="13px" font-style="normal" font-weight="normal" text-decoration="none" x="577.5" y="1096.5">26 : return BulkScorer</text></g></g><g transform="translate(-134,10) scale(1,1)"><path fill="none" stroke="#000000" d="M 419 1152 L 1860 1152" stroke-miterlimit="10"/></g><g transform="translate(-134,10) scale(1,1)"><path fill="#000000" stroke="none" d="M 1849.837325142376 1156.2095177560159 L 1860 1152 L 1849.837325142376 1147.7904822439841"/></g><g transform="translate(-134,10) scale(1,1)"><path fill="none" stroke="#000000" d="M 1849.837325142376 1156.2095177560159 L 1860 1152 L 1849.837325142376 1147.7904822439841 L 1849.837325142376 1156.2095177560159" stroke-miterlimit="10"/></g><g transform="translate(-134,10) scale(1,1)"><g><path fill="none" stroke="none"/><text fill="#000000" stroke="none" font-family="Arial" font-size="13px" font-style="normal" font-weight="normal" text-decoration="none" x="1029.5" y="1148.5">27 *[docId in matching  docs] : score()</text></g></g><g transform="translate(-134,10) scale(1,1)"><rect fill="#ffffff" stroke="none" x="1860" y="1152" width="13" height="264"/></g><g transform="translate(-134,10) scale(1,1)"><path fill="none" stroke="#000000" d="M 1860 1152 L 1873 1152 L 1873 1416 L 1860 1416 L 1860 1152 Z Z" stroke-miterlimit="10"/></g><g transform="translate(-134,10) scale(1,1)"><path fill="none" stroke="#000000" d="M 1873 1168 L 2098 1168" stroke-miterlimit="10"/></g><g transform="translate(-134,10) scale(1,1)"><path fill="#000000" stroke="none" d="M 2087.837325142376 1172.2095177560159 L 2098 1168 L 2087.837325142376 1163.7904822439841"/></g><g transform="translate(-134,10) scale(1,1)"><path fill="none" stroke="#000000" d="M 2087.837325142376 1172.2095177560159 L 2098 1168 L 2087.837325142376 1163.7904822439841 L 2087.837325142376 1172.2095177560159" stroke-miterlimit="10"/></g><g transform="translate(-134,10) scale(1,1)"><g><path fill="none" stroke="none"/><text fill="#000000" stroke="none" font-family="Arial" font-size="13px" font-style="normal" font-weight="normal" text-decoration="none" x="1944.298583984375" y="1164.5">28 : nextDoc()</text></g></g><g transform="translate(-134,10) scale(1,1)"><rect fill="#ffffff" stroke="none" x="2098" y="1168" width="13" height="28"/></g><g transform="translate(-134,10) scale(1,1)"><path fill="none" stroke="#000000" d="M 2098 1168 L 2111 1168 L 2111 1196 L 2098 1196 L 2098 1168 Z Z" stroke-miterlimit="10"/></g><g transform="translate(-134,10) scale(1,1)"><path fill="none" stroke="#000000" d="M 2098 1192 L 1873 1192" stroke-miterlimit="10" stroke-dasharray="3"/></g><g transform="translate(-134,10) scale(1,1)"><path fill="none" stroke="#000000" d="M 1883.162674857624 1187.7904822439841 L 1873 1192 L 1883.162674857624 1196.2095177560159" stroke-miterlimit="10"/></g><g transform="translate(-134,10) scale(1,1)"><g><path fill="none" stroke="none"/><text fill="#000000" stroke="none" font-family="Arial" font-size="13px" font-style="normal" font-weight="normal" text-decoration="none" x="1894.5" y="1208.5">29 : return one matching doc id</text></g></g><g transform="translate(-134,10) scale(1,1)"><path fill="none" stroke="#000000" d="M 1873 1249 L 2380 1249" stroke-miterlimit="10"/></g><g transform="translate(-134,10) scale(1,1)"><path fill="#000000" stroke="none" d="M 2369.837325142376 1253.2095177560159 L 2380 1249 L 2369.837325142376 1244.7904822439841"/></g><g transform="translate(-134,10) scale(1,1)"><path fill="none" stroke="#000000" d="M 2369.837325142376 1253.2095177560159 L 2380 1249 L 2369.837325142376 1244.7904822439841 L 2369.837325142376 1253.2095177560159" stroke-miterlimit="10"/></g><g transform="translate(-134,10) scale(1,1)"><g><path fill="none" stroke="none"/><text fill="#000000" stroke="none" font-family="Arial" font-size="13px" font-style="normal" font-weight="normal" text-decoration="none" x="2090.736328125" y="1245.5">30 : collect()</text></g></g><g transform="translate(-134,10) scale(1,1)"><rect fill="#ffffff" stroke="none" x="2380" y="1249" width="13" height="143"/></g><g transform="translate(-134,10) scale(1,1)"><path fill="none" stroke="#000000" d="M 2380 1249 L 2393 1249 L 2393 1392 L 2380 1392 L 2380 1249 Z Z" stroke-miterlimit="10"/></g><g transform="translate(-134,10) scale(1,1)"><path fill="none" stroke="#000000" d="M 2393 1279 L 2559 1279" stroke-miterlimit="10"/></g><g transform="translate(-134,10) scale(1,1)"><path fill="#000000" stroke="none" d="M 2548.837325142376 1283.2095177560159 L 2559 1279 L 2548.837325142376 1274.7904822439841"/></g><g transform="translate(-134,10) scale(1,1)"><path fill="none" stroke="#000000" d="M 2548.837325142376 1283.2095177560159 L 2559 1279 L 2548.837325142376 1274.7904822439841 L 2548.837325142376 1283.2095177560159" stroke-miterlimit="10"/></g><g transform="translate(-134,10) scale(1,1)"><g><path fill="none" stroke="none"/><text fill="#000000" stroke="none" font-family="Arial" font-size="13px" font-style="normal" font-weight="normal" text-decoration="none" x="2443.265869140625" y="1275.5">31 : score()</text></g></g><g transform="translate(-134,10) scale(1,1)"><rect fill="#ffffff" stroke="none" x="2559" y="1279" width="13" height="41"/></g><g transform="translate(-134,10) scale(1,1)"><path fill="none" stroke="#000000" d="M 2559 1279 L 2572 1279 L 2572 1320 L 2559 1320 L 2559 1279 Z Z" stroke-miterlimit="10"/></g><g transform="translate(-134,10) scale(1,1)"><path fill="none" stroke="#000000" d="M 2559 1311 L 2393 1311" stroke-miterlimit="10" stroke-dasharray="3"/></g><g transform="translate(-134,10) scale(1,1)"><path fill="none" stroke="#000000" d="M 2403.162674857624 1306.7904822439841 L 2393 1311 L 2403.162674857624 1315.2095177560159" stroke-miterlimit="10"/></g><g transform="translate(-134,10) scale(1,1)"><g><path fill="none" stroke="none"/><text fill="#000000" stroke="none" font-family="Arial" font-size="13px" font-style="normal" font-weight="normal" text-decoration="none" x="2427.5" y="1327.5">32 : return score</text></g></g><g transform="translate(-134,10) scale(1,1)"><path fill="none" stroke="#000000" d="M 2393 1368 L 2830 1368" stroke-miterlimit="10"/></g><g transform="translate(-134,10) scale(1,1)"><path fill="#000000" stroke="none" d="M 2819.837325142376 1372.2095177560159 L 2830 1368 L 2819.837325142376 1363.7904822439841"/></g><g transform="translate(-134,10) scale(1,1)"><path fill="none" stroke="#000000" d="M 2819.837325142376 1372.2095177560159 L 2830 1368 L 2819.837325142376 1363.7904822439841 L 2819.837325142376 1372.2095177560159" stroke-miterlimit="10"/></g><g transform="translate(-134,10) scale(1,1)"><g><path fill="none" stroke="none"/><text fill="#000000" stroke="none" font-family="Arial" font-size="13px" font-style="normal" font-weight="normal" text-decoration="none" x="2562.5" y="1364.5">33 : updateTop()</text></g></g><g transform="translate(-134,10) scale(1,1)"><rect fill="#ffffff" stroke="none" x="2830" y="1368" width="13" height="28"/></g><g transform="translate(-134,10) scale(1,1)"><path fill="none" stroke="#000000" d="M 2830 1368 L 2843 1368 L 2843 1396 L 2830 1396 L 2830 1368 Z Z" stroke-miterlimit="10"/></g><g transform="translate(-134,10) scale(1,1)"><path fill="none" stroke="#000000" d="M 412 1534 L 3150 1534" stroke-miterlimit="10"/></g><g transform="translate(-134,10) scale(1,1)"><path fill="#000000" stroke="none" d="M 3139.837325142376 1538.2095177560159 L 3150 1534 L 3139.837325142376 1529.7904822439841"/></g><g transform="translate(-134,10) scale(1,1)"><path fill="none" stroke="#000000" d="M 3139.837325142376 1538.2095177560159 L 3150 1534 L 3139.837325142376 1529.7904822439841 L 3139.837325142376 1538.2095177560159" stroke-miterlimit="10"/></g><g transform="translate(-134,10) scale(1,1)"><g><path fill="none" stroke="none"/><text fill="#000000" stroke="none" font-family="Arial" font-size="13px" font-style="normal" font-weight="normal" text-decoration="none" x="671.121337890625" y="1531.5">34 : reduce()</text></g></g><g transform="translate(-134,10) scale(1,1)"><rect fill="#ffffff" stroke="none" x="3150" y="1534" width="13" height="66"/></g><g transform="translate(-134,10) scale(1,1)"><path fill="none" stroke="#000000" d="M 3150 1534 L 3163 1534 L 3163 1600 L 3150 1600 L 3150 1534 Z Z" stroke-miterlimit="10"/></g><g transform="translate(-134,10) scale(1,1)"><path fill="none" stroke="#000000" d="M 3150 1592 L 412 1592" stroke-miterlimit="10" stroke-dasharray="3"/></g><g transform="translate(-134,10) scale(1,1)"><path fill="none" stroke="#000000" d="M 422.16267485762415 1587.7904822439841 L 412 1592 L 422.16267485762415 1596.2095177560159" stroke-miterlimit="10"/></g><g transform="translate(-134,10) scale(1,1)"><g><path fill="none" stroke="none"/><text fill="#000000" stroke="none" font-family="Arial" font-size="13px" font-style="normal" font-weight="normal" text-decoration="none" x="631.5" y="1587.5">35 : return Top N docs</text></g></g><g transform="translate(-134,10) scale(1,1)"><path fill="none" stroke="#000000" d="M 399 1610 L 212 1610" stroke-miterlimit="10" stroke-dasharray="3"/></g><g transform="translate(-134,10) scale(1,1)"><path fill="none" stroke="#000000" d="M 222.16267485762415 1605.7904822439841 L 212 1610 L 222.16267485762415 1614.2095177560159" stroke-miterlimit="10"/></g><g transform="translate(-134,10) scale(1,1)"><g><path fill="none" stroke="none"/><text fill="#000000" stroke="none" font-family="Arial" font-size="13px" font-style="normal" font-weight="normal" text-decoration="none" x="227.5" y="1626.5">36 : return final top N docs</text></g></g></g></svg>